<?xml version="1.0" standalone="no"?>
<!DOCTYPE svg PUBLIC "-//W3C//DTD SVG 1.1//EN" "http://www.w3.org/Graphics/SVG/1.1/DTD/svg11.dtd" >
<svg xmlns="http://www.w3.org/2000/svg">
<metadata></metadata>
<defs>
<font id="lintelregular" horiz-adv-x="479" >
<font-face units-per-em="1000" ascent="750" descent="-250" />
<missing-glyph horiz-adv-x="300" />
<glyph horiz-adv-x="0" />
<glyph horiz-adv-x="333" />
<glyph unicode=" "  horiz-adv-x="300" />
<glyph unicode="&#x09;" horiz-adv-x="300" />
<glyph unicode="&#xa0;" horiz-adv-x="300" />
<glyph unicode="!" horiz-adv-x="165" d="M83 0q-13 0 -23 10t-10 23t10 22.5t23 9.5q12 0 22 -9.5t10 -22.5t-10 -23t-22 -10zM110 111h-55l-2 574h59z" />
<glyph unicode="&#x22;" horiz-adv-x="274" d="M109 471h-52l-7 229h64zM219 471h-53l-6 229h64z" />
<glyph unicode="#" horiz-adv-x="644" d="M370 264l29 118h-138q-5 -23 -15 -61.5t-14 -56.5h138zM594 209h-179l-50 -209h-57l50 209h-137q-23 -92 -50 -209h-57l50 209h-114v55h127q8 35 13.5 58t8.5 37.5t5 22.5h-154v56h167q26 103 58 247h57l-57 -247h136q38 156 58 247h58l-59 -247h126v-56h-139 q-25 -101 -28 -118h167v-55z" />
<glyph unicode="$" horiz-adv-x="577" d="M316 -46h-54v36q-98 8 -154 71t-58 141h55q2 -57 43.5 -103t113.5 -53v296q-47 16 -75 28t-59 32t-45.5 47.5t-14.5 64.5q0 76 55.5 122.5t138.5 55.5v39h54v-38q85 -10 145 -61t61 -135h-55q-1 64 -43.5 100.5t-107.5 41.5v-255q48 -16 78.5 -29.5t64.5 -36t51 -54.5 t17 -73q0 -86 -52 -140t-159 -61v-36zM471 191q0 49 -41 79.5t-114 54.5v-279q79 8 117 46.5t38 98.5zM124 514q0 -38 37 -64.5t101 -48.5v237q-61 -8 -99.5 -40t-38.5 -84z" />
<glyph unicode="%" horiz-adv-x="691" d="M202 389q-64 0 -108 43.5t-44 108.5q0 63 44 107.5t108 44.5q62 0 107 -45t45 -107q0 -64 -44.5 -108t-107.5 -44zM122 0h-70l517 685h71zM202 444q40 0 68.5 28.5t28.5 68.5q0 41 -28.5 69.5t-68.5 28.5t-68 -28.5t-28 -69.5q0 -40 28 -68.5t68 -28.5zM489 -11 q-64 0 -108 44t-44 109q0 62 44 107t108 45q61 0 106.5 -45t45.5 -107q0 -64 -45 -108.5t-107 -44.5zM489 45q40 0 68.5 28.5t28.5 68.5t-28.5 68t-68.5 28t-68.5 -28t-28.5 -68t28.5 -68.5t68.5 -28.5z" />
<glyph unicode="&#x26;" horiz-adv-x="556" d="M421 102l85 -102h-73l-47 55q-48 -55 -139 -55q-83 0 -138.5 54t-55.5 136q0 42 20 81.5t53 66.5l10 7l7 4l-62 76q-31 37 -31 90q0 69 42.5 112.5t110.5 43.5q66 0 109 -44t43 -112q0 -74 -57 -116l-63 -47l-14 -12q43 -52 159 -187q4 28 4 56h55q0 -72 -18 -107z M108 190q0 -57 40 -95.5t99 -38.5q65 0 105 42l-174 209l-19 -14q-51 -42 -51 -103zM186 385l77 58q36 32 36 72q0 43 -27.5 71.5t-68.5 28.5q-43 0 -70.5 -28.5t-27.5 -71.5q0 -31 20 -56z" />
<glyph unicode="'" horiz-adv-x="164" d="M109 473h-53l-6 229h64z" />
<glyph unicode="(" horiz-adv-x="247" d="M197 -67l-23 -51q-67 37 -95.5 80.5t-28.5 122.5v452q0 79 28.5 122.5t96.5 80.5l19 -52q-21 -13 -31.5 -21t-26.5 -25t-23.5 -41t-7.5 -56v-466q0 -33 7.5 -57.5t24.5 -42t28 -25.5t32 -21z" />
<glyph unicode=")" horiz-adv-x="246" d="M72 -117l-22 51q21 12 32 20t27.5 25.5t24 42t7.5 57.5v466q0 32 -7.5 55.5t-24 41t-26.5 25.5t-31 21l19 52q68 -37 96.5 -80.5t28.5 -122.5v-452q0 -79 -28.5 -121.5t-95.5 -80.5z" />
<glyph unicode="*" horiz-adv-x="415" d="M324 423l-46 -35l-71 95l-32 -45q-4 -7 -17 -25t-17 -25l-46 32l67 95q-8 3 -16.5 6t-18.5 7.5t-16 6.5q-10 3 -34 12t-27 10l19 54l108 -45v119h58v-121q89 37 113 46l17 -53l-114 -42z" />
<glyph unicode="+" horiz-adv-x="433" d="M244 479v-139h139v-55h-139v-140h-55v140h-139v55h139v139h55z" />
<glyph unicode="," horiz-adv-x="181" d="M125 13l-42 -42l-33 16l16 37q-1 4 -1 9q0 13 10.5 22.5t22.5 9.5q13 0 23 -9.5t10 -22.5q0 -11 -6 -20z" />
<glyph unicode="-" horiz-adv-x="433" d="M50 340h333v-55h-333v55z" />
<glyph unicode="." horiz-adv-x="165" d="M83 0q-13 0 -23 10t-10 23t10 22.5t23 9.5q12 0 22 -9.5t10 -22.5t-10 -23t-22 -10z" />
<glyph unicode="/" horiz-adv-x="401" d="M109 0h-59l243 700h58z" />
<glyph unicode="0" horiz-adv-x="527" d="M477 487v-297q0 -55 -18.5 -95.5t-50 -62.5t-67 -32.5t-76.5 -10.5q-40 0 -76.5 10.5t-68.5 32.5t-51 63t-19 95v298q0 104 58 158t158 54q101 0 156 -57t55 -156zM422 190v297q0 74 -40.5 115.5t-115.5 41.5t-117.5 -39.5t-42.5 -116.5v-298q0 -74 47.5 -109.5 t111.5 -35.5q65 0 111 35t46 110z" />
<glyph unicode="1" horiz-adv-x="282" d="M232 0h-55v603q-22 -16 -52 -29q-22 -9 -62 -15l-13 53q56 14 62 17q46 23 73 70h47v-699z" />
<glyph unicode="2" horiz-adv-x="462" d="M50 43l273 383q34 53 34 101q0 49 -32.5 83t-82.5 34q-101 0 -132 -103l-54 15q48 143 186 143q74 0 122 -49.5t48 -122.5q0 -70 -46 -133l-239 -338h285v-56h-362v43z" />
<glyph unicode="3" horiz-adv-x="496" d="M50 106l44 32q56 -85 143 -85q66 0 110 43t44 109q0 63 -46.5 107t-107.5 44h-75v53h75q47 0 83 33t36 82q0 53 -33.5 88t-84.5 35q-38 0 -69 -23.5t-47 -63.5l-53 19q23 57 68 90t101 33q76 0 124.5 -50.5t48.5 -127.5q0 -85 -72 -138q51 -24 79 -71.5t28 -109.5 q0 -90 -59 -149t-150 -59q-55 0 -104 29t-83 80z" />
<glyph unicode="4" horiz-adv-x="514" d="M402 0h-55v200h-297v43l306 458h46v-445h62v-56h-62v-200zM126 256h221v330l-55 -82q-29 -43 -166 -248z" />
<glyph unicode="5" horiz-adv-x="506" d="M407 646h-230l-26 -218h92q95 0 154 -64.5t59 -149.5q0 -86 -60.5 -151.5t-154.5 -65.5q-54 0 -106.5 31.5t-84.5 83.5l49 29q24 -39 63 -63.5t79 -24.5q71 0 115.5 48.5t44.5 112.5q0 63 -43.5 111t-114.5 48h-152l34 327h282v-54z" />
<glyph unicode="6" horiz-adv-x="530" d="M471 636l-37 -42q-60 52 -139 52q-52 0 -91 -18t-59.5 -47t-30 -59.5t-9.5 -60.5v-104q62 71 160 71q90 0 152.5 -62t62.5 -152t-62.5 -153.5t-152.5 -63.5t-152.5 63.5t-62.5 153.5v247q0 31 7 62t24.5 63.5t44.5 57t70.5 40.5t98.5 16q95 0 176 -64zM105 222v-8 q0 -67 46.5 -114t113.5 -47q66 0 113.5 47t47.5 114q0 66 -47.5 112.5t-113.5 46.5q-65 0 -111.5 -44t-48.5 -107z" />
<glyph unicode="7" horiz-adv-x="503" d="M113 0h-63l331 645h-330v55h402v-42z" />
<glyph unicode="8" horiz-adv-x="522" d="M381 526q0 53 -33.5 88t-84.5 35q-52 0 -85.5 -35t-33.5 -88q0 -48 36.5 -81.5t81.5 -33.5q47 0 83 33t36 82zM416 207q0 63 -46.5 107t-107.5 44q-65 0 -110.5 -44t-45.5 -107q0 -65 45 -108.5t111 -43.5t110 43.5t44 108.5zM472 207q0 -90 -59.5 -149t-150.5 -59 q-90 0 -151 59t-61 149q0 57 30.5 105.5t79.5 76.5q-71 55 -71 137q0 77 49 127.5t125 50.5t124.5 -50.5t48.5 -127.5q0 -85 -72 -138q51 -24 79.5 -71.5t28.5 -109.5z" />
<glyph unicode="9" horiz-adv-x="530" d="M60 63l37 42q58 -52 139 -52q52 0 91 18t59.5 47t30 59.5t9.5 60.5v104q-65 -72 -160 -72q-90 0 -153 62.5t-63 152.5t63 152.5t153 62.5t152 -62.5t62 -152.5v-247q0 -31 -7 -62t-24.5 -64t-44 -58t-70 -41t-98.5 -16q-96 0 -176 66zM426 477v8q0 66 -47 113.5 t-113 47.5q-67 0 -114 -47.5t-47 -113.5t47 -113t114 -47q64 0 111 44.5t49 107.5z" />
<glyph unicode=":" horiz-adv-x="165" d="M83 359q-13 0 -23 10t-10 22q0 13 10 23t23 10q12 0 22 -10t10 -23q0 -12 -10 -22t-22 -10zM83 0q-13 0 -23 10t-10 23t10 22.5t23 9.5q12 0 22 -9.5t10 -22.5t-10 -23t-22 -10z" />
<glyph unicode=";" horiz-adv-x="181" d="M98 359q-12 0 -22.5 10t-10.5 22q0 13 10.5 23t22.5 10q13 0 23 -10t10 -23q0 -12 -10 -22t-23 -10zM123 12l-41 -42l-32 17l16 37q-1 4 -1 9q0 13 10.5 22.5t22.5 9.5q13 0 23 -9.5t10 -22.5q0 -15 -8 -21z" />
<glyph unicode="&#x3c;" horiz-adv-x="427" d="M339 639l38 -37l-252 -251l252 -253l-38 -37l-289 290z" />
<glyph unicode="=" horiz-adv-x="433" d="M383 267h-333v55h333v-55zM383 364h-333v55h333v-55z" />
<glyph unicode="&#x3e;" horiz-adv-x="427" d="M50 602l37 37l290 -288l-290 -290l-37 37l252 253z" />
<glyph unicode="?" horiz-adv-x="464" d="M222 0q-12 0 -22.5 10t-10.5 23t10.5 22.5t22.5 9.5q13 0 23 -9.5t10 -22.5t-10 -23t-23 -10zM249 110h-55v80q0 43 15 79.5t30.5 55t44.5 46.5l10 11q21 20 39 45q27 38 27 87q0 52 -34 88.5t-92 36.5q-56 0 -92.5 -39.5t-36.5 -107.5h-55q0 86 47.5 143.5t136.5 57.5 q77 0 128.5 -53t51.5 -126q0 -61 -37 -117q-19 -28 -60 -69q-24 -24 -35 -37.5t-22 -42t-11 -65.5v-73z" />
<glyph unicode="@" horiz-adv-x="527" d="M328 238v111q-19 2 -53 2q-92 0 -92 -63q0 -61 83 -61q27 0 62 11zM477 487v-292q0 -31 -22 -52.5t-53 -21.5q-25 0 -46 17.5t-27 41.5q-36 -9 -63 -9q-139 0 -139 117q0 119 148 119q30 0 50 -2q-13 40 -78 40q-45 0 -78 -23l-28 45q53 34 106 34q39 0 66 -9t40.5 -20.5 t20.5 -33t8 -35.5t1 -40v-168q0 -7 5.5 -13t13.5 -6t14 5.5t6 13.5v292q0 74 -40.5 115.5t-115.5 41.5t-117.5 -39.5t-42.5 -116.5v-298q0 -74 47.5 -109.5t111.5 -35.5q47 0 103 26l19 -52q-64 -30 -122 -30q-40 0 -76.5 10.5t-68.5 32.5t-51 63t-19 95v298q0 104 58 158 t158 54q101 0 156 -57t55 -156z" />
<glyph unicode="A" horiz-adv-x="631" d="M409 322l-93 264l-95 -264h188zM581 0h-59l-94 265h-229l-90 -265h-59l245 700h40z" />
<glyph unicode="B" horiz-adv-x="553" d="M106 56h209q131 0 131 138q0 55 -34 91.5t-95 36.5h-211v-266zM106 378h192q63 0 96.5 35.5t33.5 102.5q0 55 -34 91.5t-94 36.5h-194v-266zM315 0h-265v700h250q85 0 134.5 -53t49.5 -131q0 -117 -70 -162q43 -23 66 -65.5t23 -94.5q0 -95 -48.5 -144.5t-139.5 -49.5z " />
<glyph unicode="C" horiz-adv-x="542" d="M105 482v-257q0 -88 48.5 -133.5t133.5 -45.5q102 0 157 82l48 -31q-71 -108 -205 -108q-111 0 -174 59.5t-63 176.5v257q0 117 63 176t174 59q133 0 205 -107l-48 -32q-57 83 -157 83q-85 0 -133.5 -45.5t-48.5 -133.5z" />
<glyph unicode="D" horiz-adv-x="570" d="M302 0h-252v700h232q117 0 177.5 -63.5t60.5 -169.5v-259q0 -208 -218 -208zM106 56h196q163 0 163 152v259q0 79 -47.5 128t-135.5 49h-176v-588z" />
<glyph unicode="E" horiz-adv-x="535" d="M485 0h-435v700h435v-56h-379v-267h346v-55h-346v-266h379v-56z" />
<glyph unicode="F" horiz-adv-x="535" d="M106 0h-56v700h435v-56h-379v-267h346v-55h-346v-322z" />
<glyph unicode="G" horiz-adv-x="570" d="M326 322v55h194v-377h-55v56q-70 -67 -179 -67q-44 0 -84.5 12t-75.5 37t-55.5 70t-20.5 104v270q0 117 63 176t174 59q135 0 204 -107l-46 -32q-57 83 -158 83q-85 0 -133 -45.5t-48 -133.5v-270q0 -86 53.5 -126t126.5 -40q74 0 126.5 40t52.5 126v110h-139z" />
<glyph unicode="H" horiz-adv-x="570" d="M520 0h-55v322h-359v-322h-56v700h56v-323h359v323h55v-700z" />
<glyph unicode="I" horiz-adv-x="156" d="M106 0h-56v700h56v-700z" />
<glyph unicode="J" horiz-adv-x="339" d="M50 -11v57q85 0 134 41t49 119v494h56v-494q0 -107 -64 -162t-175 -55z" />
<glyph unicode="K" horiz-adv-x="572" d="M181 363l-75 -90v-273h-56v700h56v-338q42 49 90.5 106t106 125.5t89.5 106.5h73l-245 -294l302 -406h-72z" />
<glyph unicode="L" horiz-adv-x="454" d="M50 700h56v-644h298v-56h-354v700z" />
<glyph unicode="M" horiz-adv-x="646" d="M596 0h-56v526l-99 -264q-6 -17 -43.5 -114.5t-55.5 -147.5h-40l-196 526v-526h-56v700h49l225 -599l116 313q9 24 48.5 128t59.5 158h48v-700z" />
<glyph unicode="N" horiz-adv-x="535" d="M485 0h-49l-330 571v-571h-56v700h49l330 -574v574h56v-700z" />
<glyph unicode="O" horiz-adv-x="570" d="M465 212v269q0 84 -46 132t-132 48q-85 0 -133 -45.5t-48 -133.5v-270q0 -86 53.5 -126t126.5 -40q74 0 126.5 40t52.5 126zM520 481v-269q0 -59 -20.5 -104t-54.5 -70t-74 -37t-85 -12q-44 0 -84.5 12t-75.5 37t-55.5 70t-20.5 104v270q0 117 63 176t174 59 q112 0 172.5 -63t60.5 -173z" />
<glyph unicode="P" horiz-adv-x="547" d="M50 0v700h261q87 0 136.5 -53t49.5 -131q0 -95 -48.5 -144t-139.5 -49h-204v-323h-55zM105 378h204q64 0 97.5 35.5t33.5 102.5q0 55 -34 91.5t-95 36.5h-206v-266z" />
<glyph unicode="Q" horiz-adv-x="578" d="M521 481v-269q0 -83 -43 -141l50 -51l-38 -38l-49 50q-55 -43 -155 -43q-44 0 -84.5 12t-75.5 37t-55.5 70t-20.5 104v270q0 117 63 176t174 59q112 0 173 -63t61 -173zM465 212v269q0 84 -46 132t-132 48q-85 0 -133 -45.5t-48 -133.5v-270q0 -86 53.5 -126t126.5 -40 q71 0 112 28l-107 109l38 38l109 -109q27 45 27 100z" />
<glyph unicode="R" horiz-adv-x="562" d="M50 0v700h261q87 0 136.5 -53t49.5 -131q0 -95 -48.5 -144t-139.5 -49h-8q16 -26 46.5 -72t41.5 -63l123 -188h-68l-209 323h-129v-323h-56zM106 378h203q64 0 98 35.5t34 102.5q0 55 -34.5 91.5t-95.5 36.5h-205v-266z" />
<glyph unicode="S" horiz-adv-x="587" d="M532 508h-56q-1 69 -51 107t-124 38q-75 0 -125.5 -34t-50.5 -94q0 -20 11 -37t24.5 -28t41.5 -23.5t46 -18.5l54 -18q44 -14 69 -23.5t61.5 -28t55.5 -37.5t34 -49t15 -66q0 -95 -60 -151t-185 -56q-111 0 -175.5 66.5t-66.5 150.5h56q2 -63 51.5 -111.5t134.5 -48.5 q97 0 143 40.5t46 109.5q0 24 -12.5 45t-28 34.5t-46.5 27.5t-51.5 21.5t-58.5 19.5q-43 14 -66.5 22.5t-56.5 25t-50 33t-30 42.5t-13 58q0 87 67 136t166 49q96 0 163 -53t68 -149z" />
<glyph unicode="T" horiz-adv-x="535" d="M293 0h-57v644h-186v56h435v-56h-192v-644z" />
<glyph unicode="U" horiz-adv-x="570" d="M465 701h55v-489q0 -59 -20.5 -104t-54.5 -70t-74 -37t-85 -12q-44 0 -84.5 12t-75.5 37t-55.5 70t-20.5 104v489h56v-489q0 -86 53.5 -126t126.5 -40q74 0 126.5 40t52.5 126v489z" />
<glyph unicode="V" horiz-adv-x="606" d="M329 0h-51l-228 700h60l193 -588q172 523 192 588h61z" />
<glyph unicode="W" horiz-adv-x="807" d="M577 0h-50l-123 542l-121 -542h-51l-182 700h60l146 -561l24 108t41 186.5t59 266.5h50l124 -564q28 109 80.5 317t62.5 247h60z" />
<glyph unicode="X" horiz-adv-x="654" d="M604 0h-69l-208 312l-207 -312h-70l243 364q-25 38 -103 153t-122 183h67l192 -285l191 285h69l-225 -336z" />
<glyph unicode="Y" horiz-adv-x="619" d="M337 0h-55v353l-232 347h67l192 -285l191 285h69l-232 -345v-355z" />
<glyph unicode="Z" horiz-adv-x="593" d="M543 0h-493v43l414 601h-392v56h471v-43l-415 -601h415v-56z" />
<glyph unicode="[" horiz-adv-x="287" d="M237 -106h-187v837h187v-54h-132v-727h132v-56z" />
<glyph unicode="\" horiz-adv-x="402" d="M352 0h-58l-244 700h59z" />
<glyph unicode="]" horiz-adv-x="287" d="M237 -106h-187v56h132v727h-132v54h187v-837z" />
<glyph unicode="^" horiz-adv-x="406" d="M86 503l-36 42l155 147l151 -150l-37 -37l-114 112z" />
<glyph unicode="_" horiz-adv-x="433" d="M383 -17h-333v55h333v-55z" />
<glyph unicode="`" horiz-adv-x="238" d="M188 557h-56l-82 141h77z" />
<glyph unicode="a" horiz-adv-x="494" d="M265 -12q-215 5 -215 180q0 100 62 140t167 40q41 0 109 -7q-7 51 -40.5 81.5t-114.5 30.5q-73 0 -124 -32l-35 46q71 42 159 42q44 0 78 -7.5t56 -17.5t37.5 -29t23 -34.5t11.5 -41.5t4.5 -41.5t0.5 -43.5v-297h-55v13q-60 -22 -124 -22zM389 71v214q-74 8 -110 8 q-173 0 -173 -125q0 -124 159 -124q65 0 124 27z" />
<glyph unicode="b" d="M50 0v700h55v-212q68 22 130 22q85 0 139.5 -40.5t54.5 -133.5v-173q0 -108 -90 -150q-44 -22 -109 -22q-75 0 -125 22v-13h-55zM374 162v174q0 63 -39 90.5t-100 27.5q-69 0 -130 -24v-356q55 -27 125 -27q62 0 103 27.5t41 87.5z" />
<glyph unicode="c" horiz-adv-x="438" d="M375 63l13 -52q-78 -21 -134 -21q-52 0 -88 12q-59 21 -87.5 65t-28.5 119v118q0 101 53 153.5t137 52.5q60 0 148 -40l-22 -50q-68 34 -126 34q-60 0 -98 -38.5t-38 -111.5v-118q0 -106 79 -130q30 -10 71 -10q34 0 121 17z" />
<glyph unicode="d" d="M429 700v-700h-55v13q-60 -22 -125 -22q-64 0 -110 22q-89 42 -89 150v173q0 93 54.5 133.5t139.5 40.5q59 0 130 -23v213h55zM105 162q0 -60 41 -87.5t103 -27.5q69 0 125 27v355q-75 25 -130 25q-61 0 -100 -27.5t-39 -90.5v-174z" />
<glyph unicode="e" horiz-adv-x="470" d="M365 284v52q0 63 -37.5 90.5t-90.5 27.5q-54 0 -93 -29t-39 -91v-50h260zM378 93l27 -49q-95 -55 -179 -56h-9q-77 0 -122 39t-45 115v191q0 83 51.5 130t136.5 47q86 0 134 -46.5t48 -128.5v-106h-315v-88q0 -47 32 -73t82 -26q67 0 159 51z" />
<glyph unicode="f" horiz-adv-x="304" d="M50 0v533q0 86 44.5 126.5t108.5 40.5q23 0 51 -5v-56q-35 6 -51 6q-42 0 -69.5 -26.5t-27.5 -85.5v-26h139v-56h-139v-451h-56z" />
<glyph unicode="g" d="M374 500h55v-534q0 -77 -45 -115.5t-122 -38.5h-9q-86 2 -179 57l27 47q94 -51 159 -51q50 0 82 26t32 73v46q-60 -22 -132 -22q-66 0 -103 19q-89 45 -89 152v179q0 107 89 149q46 22 110 22q74 0 125 -21v12zM244 43q69 0 130 24v358q-58 28 -125 28q-62 0 -103 -27.5 t-41 -87.5v-176q0 -63 39 -91t100 -28z" />
<glyph unicode="h" d="M429 0h-55v339q0 60 -40 88t-101 28q-65 0 -128 -28v-427h-55v699h55v-211q60 22 125 22t109 -22q90 -42 90 -150v-338z" />
<glyph unicode="i" horiz-adv-x="162" d="M82 632q-32 0 -32 32q0 30 32 30q30 0 30 -30q0 -32 -30 -32zM109 0h-55v501h55v-501z" />
<glyph unicode="j" horiz-adv-x="248" d="M64 -195l-14 53q87 13 87 84v559h56v-559q0 -43 -26 -82.5t-79 -51.5q-9 -3 -24 -3zM167 632q-32 0 -32 32q0 30 32 30q31 0 31 -30q0 -32 -31 -32z" />
<glyph unicode="k" horiz-adv-x="497" d="M447 0h-69l-202 268q-48 -44 -70 -63v-205h-56v700h56v-420q46 39 128.5 117.5t118.5 111.5h82l-218 -201z" />
<glyph unicode="l" horiz-adv-x="155" d="M105 0h-55v700h55v-700z" />
<glyph unicode="m" horiz-adv-x="716" d="M666 0h-56v337q0 58 -29.5 87t-76.5 29q-41 0 -86 -21l-35 -17q6 -25 6 -88v-327h-55v366q0 45 -31.5 66t-79.5 21q-62 0 -117 -26v-427h-56v501h56v-13q58 22 117 22q91 0 135 -47l40 21q48 26 108 26q71 0 115.5 -45.5t44.5 -126.5v-338z" />
<glyph unicode="n" d="M429 0h-55v339q0 60 -41 87.5t-103 27.5q-67 0 -125 -28v-426h-55v501h55v-13q60 22 125 22t109 -22q90 -42 90 -150v-338z" />
<glyph unicode="o" horiz-adv-x="483" d="M433 311v-122q0 -84 -47.5 -141.5t-143.5 -57.5q-94 0 -143 58t-49 141v122q0 96 50 148.5t142 52.5q90 0 140.5 -53.5t50.5 -147.5zM377 189v122q0 68 -35 106.5t-100 38.5q-67 0 -102 -37t-35 -108v-122q0 -61 35 -102t102 -41q68 0 101.5 40.5t33.5 102.5z" />
<glyph unicode="p" d="M50 -188v688h55v-12q61 21 125 21t109 -21q90 -43 90 -150v-174q0 -93 -54.5 -133.5t-139.5 -40.5q-53 0 -130 23v-201h-55zM374 338q0 60 -41 87.5t-103 27.5q-67 0 -125 -28v-354q75 -25 130 -25q61 0 100 27.5t39 90.5v174z" />
<glyph unicode="q" d="M429 500v-688h-55v201q-66 -23 -130 -23q-85 0 -139.5 40.5t-54.5 133.5v174q0 107 89 149q46 22 110 22q74 0 125 -21v12h55zM105 338v-174q0 -63 39 -90.5t100 -27.5q69 0 130 24v355q-58 28 -125 28q-62 0 -103 -27.5t-41 -87.5z" />
<glyph unicode="r" horiz-adv-x="373" d="M50 0v501h55v-38q54 49 137 49q36 0 81 -14l-11 -57q-48 15 -70 15q-67 0 -102 -37t-35 -108v-311h-55z" />
<glyph unicode="s" horiz-adv-x="472" d="M50 153h55q4 -47 38 -79.5t98 -32.5q57 0 91.5 26.5t34.5 66.5q0 20 -10.5 36t-34 28t-41.5 19t-51 17l-49.5 16.5t-42.5 18t-38.5 25t-22.5 32.5t-10 45q0 57 42.5 99.5t129.5 42.5t130 -48.5t43 -112.5h-55q0 42 -29 73.5t-89 31.5q-59 0 -87.5 -26t-28.5 -60 q0 -19 20.5 -35.5t42.5 -25.5t60 -21q32 -10 52 -17t46 -20.5t41 -28.5t26 -38t11 -51q0 -65 -49.5 -106t-131.5 -41q-89 0 -137 48.5t-54 117.5z" />
<glyph unicode="t" horiz-adv-x="334" d="M284 45v-56q-109 0 -171.5 54t-62.5 159v498h55v-199h140v-56h-140v-243q0 -77 48 -117t131 -40z" />
<glyph unicode="u" d="M50 501h55v-339q0 -60 41 -87.5t103 -27.5q69 0 125 27v427h55v-501h-55v13q-60 -22 -125 -22q-64 0 -110 22q-89 42 -89 150v338z" />
<glyph unicode="v" horiz-adv-x="509" d="M273 0h-35l-188 501h56l148 -395q20 52 71 187.5t78 207.5h56z" />
<glyph unicode="w" horiz-adv-x="729" d="M513 0h-40l-109 369l-108 -369h-39l-167 501h56l125 -383q36 126 113 383h40l113 -380l126 380h56z" />
<glyph unicode="x" horiz-adv-x="475" d="M422 0h-64l-121 200q-18 -25 -125 -200h-62l156 249l-152 252h66l119 -197l120 197h66l-153 -251q97 -161 150 -250z" />
<glyph unicode="y" d="M374 501h55v-535q0 -77 -45 -115.5t-122 -38.5h-9q-86 2 -179 57l27 47q94 -51 159 -51q50 0 82 26t32 73v46q-60 -22 -132 -22q-66 0 -103 19q-89 45 -89 152v342h55v-339q0 -63 39 -91t100 -28q69 0 130 24v434z" />
<glyph unicode="z" horiz-adv-x="458" d="M408 0h-358v42l282 403h-261v56h337v-42l-282 -403h282v-56z" />
<glyph unicode="{" horiz-adv-x="323" d="M126 403v134q0 78 29.5 121t96.5 82l20 -52q-21 -13 -31.5 -21t-27 -25t-24 -41t-7.5 -56v-142q0 -39 -55 -94q55 -55 55 -95v-135q0 -43 16 -74t32 -43t43 -27l-21 -54q-68 39 -97 82.5t-29 121.5v129q0 21 -76 94l19 18q57 54 57 77z" />
<glyph unicode="|" horiz-adv-x="154" d="M104 -46h-54v746h54v-746z" />
<glyph unicode="}" horiz-adv-x="324" d="M197 403q0 -22 58 -77l19 -18q-77 -72 -77 -94v-129q0 -79 -29 -122t-96 -81l-22 53q21 12 32 20t28 25t24.5 41.5t7.5 57.5v135q0 42 53 95q-53 55 -53 94v142q0 41 -16 72t-32 43t-43 28l21 52q67 -38 96 -81t29 -122v-134z" />
<glyph unicode="~" horiz-adv-x="516" d="M427 287l39 -40q-51 -50 -105 -50q-33 0 -98 21h-1l-2 1q-55 19 -83 19q-42 0 -86 -52l-41 37q61 70 127 70q32 0 80 -16q3 -1 8 -3t7 -2q56 -20 89 -20q30 0 66 35z" />
<glyph unicode="&#xa1;" horiz-adv-x="165" d="M83 497q12 0 22 -10t10 -23q0 -12 -10 -22t-22 -10q-13 0 -23 10t-10 22q0 14 10 23.5t23 9.5zM55 387h55l2 -575h-59z" />
<glyph unicode="&#xa2;" horiz-adv-x="438" d="M267 -46h-54v37q-20 2 -47 11q-62 20 -89 63t-27 121v118q0 89 45.5 142t117.5 63v47h54v-47q39 -4 121 -39l-22 -50q-56 27 -99 33v-407q54 3 110 17l11 -53q-71 -17 -121 -20v-36zM104 304v-118q0 -56 17 -86t54 -41q16 -8 38 -11v404q-49 -9 -79 -46.5t-30 -101.5z " />
<glyph unicode="&#xa3;" horiz-adv-x="539" d="M290 0h-240v44q45 24 75 70.5t30 94.5v4q0 51 -18 100h-66v55h46q-24 69 -24 127q0 89 55.5 143.5t141.5 54.5q71 0 122 -33l-18 -54l-4 2q-60 31 -100 31q-66 0 -104 -42.5t-38 -103.5q0 -38 29 -125h131v-55h-112q16 -66 16 -108q0 -82 -58 -149h136q100 0 156 82 l43 -35q-68 -103 -199 -103z" />
<glyph unicode="&#xa5;" horiz-adv-x="609" d="M276 332h-138v56h111q-195 291 -199 297h67l187 -279q112 165 188 279h67l-201 -297h114v-56h-140v-42h140v-55h-140v-235h-56v235h-138v55h138v42z" />
<glyph unicode="&#xa6;" horiz-adv-x="154" d="M104 376h-54v324h54v-324zM104 -46h-54v324h54v-324z" />
<glyph unicode="&#xa7;" horiz-adv-x="472" d="M67 476q0 56 42.5 98t129.5 42t130 -48t43 -111h-55q0 42 -29 73.5t-89 31.5q-59 0 -87.5 -26t-28.5 -60q0 -19 20.5 -35.5t42.5 -25.5t60 -21q41 -13 65 -22.5t53.5 -28t43.5 -44.5t14 -61q0 -83 -71 -122q71 -40 71 -114q0 -64 -49.5 -105.5t-131.5 -41.5 q-89 0 -137 49t-54 118h55q4 -47 38 -79t98 -32q57 0 91.5 26t34.5 65q0 17 -8.5 31.5t-19.5 24t-32 19t-35.5 14.5t-41.5 13q-32 10 -49 15.5t-42.5 18t-38.5 25t-23 32t-10 44.5q0 95 87 126q-43 18 -65 43t-22 68zM367 238q0 50 -69 77q-23 10 -59 10q-59 0 -87.5 -25.5 t-28.5 -60.5q0 -18 19 -34t39.5 -24.5t57.5 -20.5l37 -12q38 6 64.5 30t26.5 60z" />
<glyph unicode="&#xa8;" horiz-adv-x="313" d="M230 665q-12 0 -22.5 10.5t-10.5 22.5q0 13 10.5 23t22.5 10q13 0 23 -10t10 -23q0 -12 -10 -22.5t-23 -10.5zM83 665q-12 0 -22.5 10.5t-10.5 22.5q0 13 10.5 23t22.5 10q13 0 23 -10t10 -23q0 -12 -10 -22.5t-23 -10.5z" />
<glyph unicode="&#xa9;" horiz-adv-x="794" d="M544 294h59q-19 -83 -76 -134t-128 -51q-100 0 -158 65t-58 167q0 96 58 164.5t156 68.5q73 0 131.5 -50.5t71.5 -130.5h-54q-8 45 -46.5 85t-101.5 40q-76 0 -118 -53t-42 -122q0 -70 39 -124.5t122 -54.5q59 0 99 41.5t46 88.5zM398 -6q-139 0 -243.5 99t-104.5 250 q0 150 104 248t244 98q145 0 245.5 -100t100.5 -246q0 -149 -105.5 -249t-240.5 -100zM398 50q114 0 203 83.5t89 209.5q0 122 -85.5 207t-206.5 85q-119 0 -205.5 -83t-86.5 -209q0 -128 88 -210.5t204 -82.5z" />
<glyph unicode="&#xaa;" horiz-adv-x="355" d="M187 318q-137 4 -137 118q0 117 146 117q31 0 50 -2q-13 40 -78 40q-45 0 -77 -23l-29 46q52 33 106 33q33 0 57.5 -5t39 -16.5t23 -22.5t12 -29.5t4.5 -30.5t1 -33v-187l-55 2q-24 -7 -63 -7zM250 386v108q-27 3 -54 3q-91 0 -91 -61q0 -63 82 -63q32 0 63 13z" />
<glyph unicode="&#xab;" horiz-adv-x="540" d="M454 64l-201 202l199 200l38 -39l-160 -161q33 -33 45 -44q94 -91 114 -112zM251 64l-201 202l199 200l39 -39l-160 -161l158 -156z" />
<glyph unicode="&#xac;" horiz-adv-x="833" />
<glyph unicode="&#xad;" horiz-adv-x="433" d="M50 340h333v-55h-333v55z" />
<glyph unicode="&#xae;" horiz-adv-x="795" d="M399 -4q-141 0 -245 99t-104 250q0 149 102 247t247 98q144 0 245 -97.5t101 -247.5q0 -151 -101 -250t-245 -99zM289 363h128q19 0 36 4t35 23t18 51q0 42 -28.5 59.5t-66.5 17.5h-122v-155zM585 133h-64l-113 175h-119v-175h-55v441h179q65 0 106.5 -38t41.5 -95 q0 -98 -94 -127q13 -21 118 -181zM399 52q121 0 206.5 83t85.5 210q0 126 -85.5 208.5t-206.5 82.5q-123 0 -208 -82.5t-85 -208.5q0 -127 87 -210t206 -83z" />
<glyph unicode="&#xaf;" horiz-adv-x="341" d="M291 676h-241v55h241v-55z" />
<glyph unicode="&#xb0;" horiz-adv-x="404" d="M299 541q0 39 -26.5 68.5t-70.5 29.5q-43 0 -69.5 -30t-26.5 -68t26.5 -67.5t69.5 -29.5q44 0 70.5 29.5t26.5 67.5zM202 389q-64 0 -108 44t-44 108q0 63 44.5 107.5t107.5 44.5q62 0 107 -45t45 -107q0 -64 -44.5 -108t-107.5 -44z" />
<glyph unicode="&#xb1;" horiz-adv-x="433" d="M244 479v-139h139v-55h-139v-140h-55v140h-139v55h139v139h55zM50 56h333v-56h-333v56z" />
<glyph unicode="&#xb2;" horiz-adv-x="336" d="M50 297l164 227q16 21 16 52q0 25 -15 42t-39 17q-52 0 -71 -64l-55 12q35 106 126 106q48 0 79 -32.5t31 -80.5q0 -47 -28 -84l-71 -97q-10 -14 -28.5 -38.5t-31.5 -43.5h159v-56h-236v40z" />
<glyph unicode="&#xb3;" horiz-adv-x="360" d="M50 336l47 29q31 -52 78 -52q35 0 57.5 21.5t22.5 55.5q0 32 -24 54.5t-56 22.5h-55v55h55q25 0 42.5 16t17.5 41q0 26 -17 43t-42 17q-42 0 -62 -53l-53 18q17 42 47.5 66.5t67.5 24.5q49 0 81.5 -33t32.5 -83q0 -53 -34 -81q54 -37 54 -108q0 -58 -38 -96t-97 -38 q-73 0 -125 80z" />
<glyph unicode="&#xb4;" horiz-adv-x="238" d="M107 559h-57l61 141h77z" />
<glyph unicode="&#xb6;" horiz-adv-x="600" d="M437 674l-1 -827h-55v515h-147q-89 0 -136.5 48t-47.5 142q0 76 49 127.5t133 51.5h318v-884h-54v827h-59z" />
<glyph unicode="&#xb7;" horiz-adv-x="165" d="M83 281q-13 0 -23 10t-10 22q0 13 10 23t23 10q12 0 22 -10t10 -23q0 -12 -10 -22t-22 -10z" />
<glyph unicode="&#xb8;" horiz-adv-x="342" d="M50 -167l26 57q43 -30 84 -30q33 0 55 11.5t22 35.5q0 16 -12.5 24.5t-31.5 8.5q-15 0 -35 -5l-53 -21l-21 34l73 95h67l-37 -48h6q40 0 69.5 -21.5t29.5 -66.5q0 -55 -39 -78t-94 -23q-35 0 -109 27z" />
<glyph unicode="&#xb9;" horiz-adv-x="233" d="M183 258h-55v337l-14 -6q-19 -6 -51 -10l-13 51l43 11q26 10 44 44h46v-427z" />
<glyph unicode="&#xba;" horiz-adv-x="347" d="M297 518v-71q0 -55 -30.5 -92t-92.5 -37t-93 37t-31 92v71q0 63 32 96.5t92 33.5q59 0 91 -34.5t32 -95.5zM243 447v71q0 35 -18.5 54.5t-50.5 19.5q-69 0 -69 -74v-71q0 -32 17.5 -53t51.5 -21q35 0 52 21t17 53z" />
<glyph unicode="&#xbb;" horiz-adv-x="540" d="M287 266l-201 -202l-35 46l159 156l-160 161l38 39zM490 266l-201 -202l-35 46l158 156l-160 161l39 39z" />
<glyph unicode="&#xbc;" horiz-adv-x="644" d="M557 0h-55v109h-175v37l186 281h44v-263h37v-55h-37v-109zM402 164h100v147q-11 -17 -46 -67.5t-54 -79.5zM181 258h-54v337q-5 -3 -14 -6q-13 -5 -52 -10l-11 52l41 10q25 9 44 44h46v-427zM195 0h-58l238 685h58z" />
<glyph unicode="&#xbd;" horiz-adv-x="644" d="M181 258h-54v337q-5 -3 -14 -6q-13 -5 -52 -10l-11 52l41 10q25 9 44 44h46v-427zM357 40l164 227q17 24 17 52q0 25 -15.5 41.5t-40.5 16.5q-51 0 -70 -63l-55 12q35 107 125 107q50 0 81 -32.5t31 -81.5q0 -45 -29 -84l-62 -86q-67 -90 -69 -93h160v-56h-237v40zM195 0 h-58l238 685h58z" />
<glyph unicode="&#xbe;" horiz-adv-x="751" d="M50 336l47 29q31 -52 78 -52q35 0 57.5 21.5t22.5 55.5q0 32 -24 54.5t-56 22.5h-55v55h55q25 0 42 15.5t17 41.5t-16.5 43t-41.5 17q-42 0 -62 -53l-53 18q17 42 47.5 66.5t67.5 24.5q49 0 81.5 -33t32.5 -83q0 -48 -33 -81q53 -37 53 -108q0 -58 -38 -96t-97 -38 q-73 0 -125 80zM664 0h-56v109h-175v36l186 282h45v-263h37v-55h-37v-109zM508 164h100v147q-41 -61 -100 -147zM302 0h-58l238 685h58z" />
<glyph unicode="&#xbf;" horiz-adv-x="464" d="M242 506q13 0 23 -10.5t10 -22.5q0 -13 -10 -23t-23 -10q-12 0 -22.5 10t-10.5 23q0 12 10.5 22.5t22.5 10.5zM215 395h55v-80q0 -42 -15 -78.5t-30 -54.5t-44 -47l-8 -8q-28 -30 -41 -48q-28 -38 -28 -87q0 -52 34.5 -88.5t93.5 -36.5q54 0 90.5 39t36.5 107h55 q0 -85 -47 -143t-135 -58q-78 0 -130 53t-52 127q0 61 37 117q24 32 60 68q24 23 35.5 37t22 43t10.5 66v72z" />
<glyph unicode="&#xc0;" horiz-adv-x="631" d="M409 322l-93 264l-95 -264h188zM581 0h-59l-94 265h-228l-91 -265h-59l245 700h40zM383 750h-59l-82 144h79z" />
<glyph unicode="&#xc1;" horiz-adv-x="631" d="M409 322l-93 264q-3 -9 -12.5 -32t-13.5 -36q-11 -30 -33.5 -95t-35.5 -101h188zM581 0h-59l-94 265h-228l-44 -126l-47 -139h-59l245 700h40zM307 750h-58l63 144h78z" />
<glyph unicode="&#xc2;" horiz-adv-x="631" d="M409 322l-93 264l-95 -264h188zM581 0h-59l-94 265h-229l-90 -265h-59l245 700h40zM479 784l-43 -42l-118 121l-125 -121l-42 42l168 161z" />
<glyph unicode="&#xc3;" horiz-adv-x="631" d="M409 322l-93 264l-95 -264h188zM581 0h-59l-94 265h-229l-90 -265h-59l245 700h40zM463 850l30 -51q-51 -48 -100 -48q-28 0 -81 23l3 -1q-1 0 -3 1h-2q-40 17 -58 17q-29 0 -78 -56l-33 50q57 64 112 64q32 0 80 -23l11 -5q30 -13 50 -13q26 0 69 42z" />
<glyph unicode="&#xc4;" horiz-adv-x="631" d="M409 322l-93 264l-95 -264h188zM581 0h-59l-94 265h-229l-90 -265h-59l245 700h40zM392 750q-13 0 -23.5 10.5t-10.5 22.5q0 13 10 23.5t24 10.5q12 0 22.5 -10.5t10.5 -23.5q0 -12 -10.5 -22.5t-22.5 -10.5zM241 750q-13 0 -23 10.5t-10 22.5q0 14 10 24t23 10t23 -10.5 t10 -23.5q0 -12 -10 -22.5t-23 -10.5z" />
<glyph unicode="&#xc5;" horiz-adv-x="631" d="M409 322l-93 264l-95 -264h188zM581 0h-59l-94 265h-229l-90 -265h-59l245 700h40zM316 738q-50 0 -88.5 38.5t-38.5 88.5t38.5 87.5t88.5 37.5t87.5 -37.5t37.5 -87.5t-37.5 -88.5t-87.5 -38.5zM316 797q28 0 47.5 20t19.5 48t-19.5 47.5t-47.5 19.5t-48 -19.5 t-20 -47.5q0 -29 20 -48.5t48 -19.5z" />
<glyph unicode="&#xc6;" horiz-adv-x="775" d="M723 0h-434v265h-89l-44 -126l-47 -139h-59l245 700h430v-56h-379v-267h346v-55h-346v-266h377v-56zM222 322h67v192l-23 -66q-22 -69 -44 -126z" />
<glyph unicode="&#xc7;" horiz-adv-x="542" d="M151 -202l26 57q43 -30 84 -30q33 0 55 11.5t22 35.5q0 16 -12.5 24.5t-31.5 8.5q-15 0 -35 -5l-53 -21l-21 34l60 79q-92 10 -143.5 69t-51.5 164v257q0 117 63 176t174 59q133 0 205 -107l-48 -32q-57 83 -157 83q-85 0 -133.5 -45.5t-48.5 -133.5v-257 q0 -88 48.5 -133.5t133.5 -45.5q102 0 157 82l48 -31q-64 -96 -181 -107l-23 -30h6q40 0 69.5 -21.5t29.5 -66.5q0 -55 -39 -78t-94 -23q-35 0 -109 27z" />
<glyph unicode="&#xc8;" horiz-adv-x="535" d="M483 0h-433v700h435v-56h-379v-267h346v-55h-346v-266h377v-56zM335 750h-58l-83 144h78z" />
<glyph unicode="&#xc9;" horiz-adv-x="535" d="M483 0h-433v700h435v-56h-379v-267h346v-55h-346v-266h377v-56zM259 750h-59l62 144h79z" />
<glyph unicode="&#xca;" horiz-adv-x="535" d="M483 0h-433v700h435v-56h-379v-267h346v-55h-346v-266h377v-56zM432 785l-43 -42l-120 121l-123 -121l-42 42l166 161z" />
<glyph unicode="&#xcb;" horiz-adv-x="535" d="M483 0h-433v700h435v-56h-379v-267h346v-55h-346v-266h377v-56zM343 750q-12 0 -22.5 10.5t-10.5 22.5q0 13 10.5 23.5t22.5 10.5q13 0 23 -10t10 -24q0 -12 -10 -22.5t-23 -10.5zM193 750q-13 0 -23.5 10.5t-10.5 22.5q0 13 10.5 23.5t23.5 10.5t23 -10.5t10 -23.5 q0 -12 -10 -22.5t-23 -10.5z" />
<glyph unicode="&#xcc;" horiz-adv-x="241" d="M151 0h-57v700h57v-700zM191 750h-59l-82 144h78z" />
<glyph unicode="&#xcd;" horiz-adv-x="240" d="M145 0h-57v700h57v-700zM108 750h-58l63 144h77z" />
<glyph unicode="&#xce;" horiz-adv-x="427" d="M241 0h-56v700h56v-700zM377 786l-42 -42l-120 121l-123 -121l-42 42l166 161z" />
<glyph unicode="&#xcf;" horiz-adv-x="317" d="M186 0h-55v700h55v-700zM234 750q-13 0 -23.5 10.5t-10.5 22.5q0 13 10 23.5t24 10.5q12 0 22.5 -10.5t10.5 -23.5q0 -12 -10.5 -22.5t-22.5 -10.5zM83 750q-12 0 -22.5 10.5t-10.5 22.5q0 13 10.5 23.5t22.5 10.5q13 0 23 -10t10 -24q0 -12 -10 -22.5t-23 -10.5z" />
<glyph unicode="&#xd0;" horiz-adv-x="618" d="M350 0h-252v322h-48v55h48v323h232q117 0 177.5 -63.5t60.5 -169.5v-259q0 -208 -218 -208zM154 377h237v-55h-237v-266h196q163 0 163 152v259q0 79 -47.5 128t-135.5 49h-176v-267z" />
<glyph unicode="&#xd1;" horiz-adv-x="535" d="M485 0h-49l-330 571v-571h-56v700h49l330 -574v574h56v-700zM414 849l30 -51q-53 -48 -99 -48q-21 0 -82 22q-38 18 -60 18q-28 0 -77 -56l-34 51q60 63 113 63q31 0 83 -24l6 -3q30 -14 53 -14q26 0 67 42z" />
<glyph unicode="&#xd2;" horiz-adv-x="570" d="M465 212v269q0 84 -46 132t-132 48q-85 0 -133 -45.5t-48 -133.5v-270q0 -86 53.5 -126t126.5 -40q74 0 126.5 40t52.5 126zM520 481v-269q0 -59 -20.5 -104t-54.5 -70t-74 -37t-85 -12q-44 0 -84.5 12t-75.5 37t-55.5 70t-20.5 104v270q0 117 63 176t174 59 q112 0 172.5 -63t60.5 -173zM353 750h-58l-83 144h78z" />
<glyph unicode="&#xd3;" horiz-adv-x="570" d="M465 212v269q0 84 -46 132t-132 48q-85 0 -133 -45.5t-48 -133.5v-270q0 -86 53.5 -126t126.5 -40q74 0 126.5 40t52.5 126zM520 481v-269q0 -59 -20.5 -104t-54.5 -70t-74 -37t-85 -12q-44 0 -84.5 12t-75.5 37t-55.5 70t-20.5 104v270q0 117 63 176t174 59 q112 0 172.5 -63t60.5 -173zM276 750h-58l62 144h78z" />
<glyph unicode="&#xd4;" horiz-adv-x="570" d="M465 212v269q0 84 -46 132t-132 48q-85 0 -133 -45.5t-48 -133.5v-270q0 -86 53.5 -126t126.5 -40q74 0 126.5 40t52.5 126zM520 481v-269q0 -59 -20.5 -104t-54.5 -70t-74 -37t-85 -12q-44 0 -84.5 12t-75.5 37t-55.5 70t-20.5 104v270q0 117 63 176t174 59 q112 0 172.5 -63t60.5 -173zM449 786l-42 -42l-120 121l-123 -121l-42 42l166 161z" />
<glyph unicode="&#xd5;" horiz-adv-x="570" d="M465 212v269q0 84 -46 132t-132 48q-85 0 -133 -45.5t-48 -133.5v-270q0 -86 53.5 -126t126.5 -40q74 0 126.5 40t52.5 126zM520 481v-269q0 -59 -20.5 -104t-54.5 -70t-74 -37t-85 -12q-44 0 -84.5 12t-75.5 37t-55.5 70t-20.5 104v270q0 117 63 176t174 59 q112 0 172.5 -63t60.5 -173zM431 852l30 -52q-51 -48 -99 -48q-26 0 -79 22h-1l-2 1q-40 17 -60 17q-29 0 -78 -56l-33 51q60 63 113 63q29 0 83 -24l7 -3q32 -14 52 -14q25 0 67 43z" />
<glyph unicode="&#xd6;" horiz-adv-x="570" d="M465 212v269q0 84 -46 132t-132 48q-85 0 -133 -45.5t-48 -133.5v-270q0 -86 53.5 -126t126.5 -40q74 0 126.5 40t52.5 126zM520 481v-269q0 -59 -20.5 -104t-54.5 -70t-74 -37t-85 -12q-44 0 -84.5 12t-75.5 37t-55.5 70t-20.5 104v270q0 117 63 176t174 59 q112 0 172.5 -63t60.5 -173zM361 750q-13 0 -23 10.5t-10 22.5q0 14 10 24t23 10t23 -10.5t10 -23.5q0 -12 -10 -22.5t-23 -10.5zM210 750q-12 0 -22.5 10.5t-10.5 22.5q0 13 10.5 23.5t22.5 10.5q14 0 24 -10.5t10 -23.5q0 -12 -10.5 -22.5t-23.5 -10.5z" />
<glyph unicode="&#xd7;" horiz-adv-x="375" d="M89 449l98 -99l99 99l39 -38l-99 -99l99 -99l-39 -38l-99 98l-98 -98l-39 40l98 98l-98 97z" />
<glyph unicode="&#xd8;" horiz-adv-x="570" d="M190 -11h-60l14 37q-94 62 -94 186v270q0 117 63 176t174 59q51 0 90 -13l5 13h60l-15 -37q93 -59 93 -199v-269q0 -59 -20.5 -104t-54.5 -70t-74 -37t-85 -12q-47 0 -91 16zM287 661q-85 0 -133 -45.5t-48 -133.5v-270q0 -87 57 -131l197 569q-31 11 -73 11zM465 212 v269q0 90 -57 142q-39 -110 -108 -309t-89 -257q42 -11 75 -11q74 0 126.5 40t52.5 126z" />
<glyph unicode="&#xd9;" horiz-adv-x="570" d="M465 701h55v-489q0 -59 -20.5 -104t-54.5 -70t-74 -37t-85 -12q-44 0 -84.5 12t-75.5 37t-55.5 70t-20.5 104v489h56v-489q0 -86 53.5 -126t126.5 -40q74 0 126.5 40t52.5 126v489zM352 750h-58l-83 144h78z" />
<glyph unicode="&#xda;" horiz-adv-x="570" d="M465 701h55v-489q0 -59 -20.5 -104t-54.5 -70t-74 -37t-85 -12q-44 0 -84.5 12t-75.5 37t-55.5 70t-20.5 104v489h56v-489q0 -86 53.5 -126t126.5 -40q74 0 126.5 40t52.5 126v489zM275 750h-58l62 144h79z" />
<glyph unicode="&#xdb;" horiz-adv-x="570" d="M465 701h55v-489q0 -59 -20.5 -104t-54.5 -70t-74 -37t-85 -12q-44 0 -84.5 12t-75.5 37t-55.5 70t-20.5 104v489h56v-489q0 -86 53.5 -126t126.5 -40q74 0 126.5 40t52.5 126v489zM448 784l-42 -42l-120 121l-123 -121l-42 42l166 161z" />
<glyph unicode="&#xdc;" horiz-adv-x="570" d="M465 701h55v-489q0 -59 -20.5 -104t-54.5 -70t-74 -37t-85 -12q-44 0 -84.5 12t-75.5 37t-55.5 70t-20.5 104v489h56v-489q0 -86 53.5 -126t126.5 -40q74 0 126.5 40t52.5 126v489zM360 750q-13 0 -23 10.5t-10 22.5q0 14 10 24t23 10t23 -10.5t10 -23.5q0 -12 -10 -22.5 t-23 -10.5zM209 750q-12 0 -22.5 10.5t-10.5 22.5q0 13 10.5 23.5t22.5 10.5q13 0 23.5 -10.5t10.5 -23.5q0 -12 -10.5 -22.5t-23.5 -10.5z" />
<glyph unicode="&#xdd;" horiz-adv-x="619" d="M337 0h-55v353l-232 347h67l192 -285l191 285h69l-232 -345v-355zM300 750h-57l62 144h78z" />
<glyph unicode="&#xde;" horiz-adv-x="547" d="M50 0v700h55v-153h206q87 0 136.5 -52t49.5 -130q0 -96 -48.5 -145.5t-139.5 -49.5h-204v-170h-55zM105 227h204q131 0 131 138q0 55 -34 91t-95 36h-206v-265z" />
<glyph unicode="&#xdf;" horiz-adv-x="522" d="M262 56q66 0 110 43t44 109q0 62 -52 106t-121 44v54q55 0 96.5 33t41.5 82q0 51 -33 81.5t-85 30.5h-38q-52 0 -85.5 -35.5t-33.5 -88.5v-515h-56v515q0 77 49.5 127.5t125.5 50.5h38q77 0 125 -45t48 -121q0 -85 -71 -139q48 -25 77.5 -74t29.5 -106q0 -90 -59.5 -149 t-150.5 -59h-123v56h123z" />
<glyph unicode="&#xe0;" horiz-adv-x="494" d="M265 -12q-215 5 -215 180q0 100 62 140t167 40q41 0 109 -7q-7 51 -40.5 81.5t-114.5 30.5q-73 0 -124 -32l-35 46q71 42 159 42q44 0 78 -7.5t56 -17.5t37.5 -29t23 -34.5t11.5 -41.5t4.5 -41.5t0.5 -43.5v-297h-55v13q-60 -22 -124 -22zM389 71v214q-74 8 -110 8 q-173 0 -173 -125q0 -124 159 -124q65 0 124 27zM314 564h-57l-81 142h76z" />
<glyph unicode="&#xe1;" horiz-adv-x="494" d="M265 -12q-215 5 -215 180q0 100 62 140t167 40q41 0 109 -7q-7 51 -40.5 81.5t-114.5 30.5q-73 0 -124 -32l-35 46q71 42 159 42q44 0 78 -7.5t56 -17.5t37.5 -29t23 -34.5t11.5 -41.5t4.5 -41.5t0.5 -43.5v-297h-55v13q-60 -22 -124 -22zM389 71v214q-74 8 -110 8 q-173 0 -173 -125q0 -124 159 -124q65 0 124 27zM239 564h-58l61 142h77z" />
<glyph unicode="&#xe2;" horiz-adv-x="494" d="M265 -12q-215 5 -215 180q0 100 62 140t167 40q41 0 109 -7q-7 51 -40.5 81.5t-114.5 30.5q-73 0 -124 -32l-35 46q71 42 159 42q44 0 78 -7.5t56 -17.5t37.5 -29t23 -34.5t11.5 -41.5t4.5 -41.5t0.5 -43.5v-297h-55v13q-60 -22 -124 -22zM389 71v214q-74 8 -110 8 q-173 0 -173 -125q0 -124 159 -124q65 0 124 27zM408 599l-42 -41l-117 117q-16 -15 -57.5 -56t-63.5 -61l-41 41l163 157z" />
<glyph unicode="&#xe3;" horiz-adv-x="494" d="M265 -12q-215 5 -215 180q0 100 62 140t167 40q41 0 109 -7q-7 51 -40.5 81.5t-114.5 30.5q-73 0 -124 -32l-35 46q71 42 159 42q44 0 78 -7.5t56 -17.5t37.5 -29t23 -34.5t11.5 -41.5t4.5 -41.5t0.5 -43.5v-297h-55v13q-60 -22 -124 -22zM389 71v214q-74 8 -110 8 q-173 0 -173 -125q0 -124 159 -124q65 0 124 27zM390 662l29 -52q-48 -47 -97 -47q-34 0 -80 23q-43 16 -58 16q-30 0 -76 -55l-33 51q59 62 111 62q27 0 75 -21l11 -5q34 -16 52 -16q25 0 66 44zM267 637l5 -3q0 3 -5 3z" />
<glyph unicode="&#xe4;" horiz-adv-x="494" d="M265 -12q-215 5 -215 180q0 100 62 140t167 40q41 0 109 -7q-7 51 -40.5 81.5t-114.5 30.5q-73 0 -124 -32l-35 46q71 42 159 42q44 0 78 -7.5t56 -17.5t37.5 -29t23 -34.5t11.5 -41.5t4.5 -41.5t0.5 -43.5v-297h-55v13q-60 -22 -124 -22zM389 71v214q-74 8 -110 8 q-173 0 -173 -125q0 -124 159 -124q65 0 124 27zM320 564q-12 0 -22 10t-10 23q0 12 10 22.5t22 10.5q13 0 23 -10.5t10 -22.5q0 -13 -10 -23t-23 -10zM173 564q-12 0 -22 10t-10 23q0 12 10 22.5t22 10.5q13 0 23 -10.5t10 -22.5q0 -13 -10 -23t-23 -10z" />
<glyph unicode="&#xe5;" horiz-adv-x="494" d="M265 -12q-215 5 -215 180q0 100 62 140t167 40q41 0 109 -7q-7 51 -40.5 81.5t-114.5 30.5q-73 0 -124 -32l-35 46q71 42 159 42q44 0 78 -7.5t56 -17.5t37.5 -29t23 -34.5t11.5 -41.5t4.5 -41.5t0.5 -43.5v-297h-55v13q-60 -22 -124 -22zM389 71v214q-74 8 -110 8 q-173 0 -173 -125q0 -124 159 -124q65 0 124 27zM247 551q-49 0 -86 37t-37 86t37 86t86 37q50 0 87 -36.5t37 -86.5t-37 -86.5t-87 -36.5zM247 607q28 0 47 19.5t19 47.5q0 26 -19.5 45.5t-46.5 19.5t-46.5 -19.5t-19.5 -45.5q0 -28 19.5 -47.5t46.5 -19.5z" />
<glyph unicode="&#xe6;" horiz-adv-x="810" d="M717 93l28 -49q-95 -55 -180 -56h-8q-67 0 -112 32v-23h-56v14q-61 -23 -124 -23q-215 0 -215 180q0 100 62 140t167 40q43 0 108 -7q-4 52 -37 82t-117 30q-73 0 -124 -32l-35 46q72 42 159 42q133 0 185 -74q47 75 160 75q86 0 134 -47t48 -128v-106h-315v-88 q0 -47 32 -73t82 -26q68 0 158 51zM389 71v214q-74 8 -110 8q-173 0 -173 -125q0 -124 159 -124q65 0 124 27zM704 284v52q0 63 -37.5 90.5t-89.5 27.5q-54 0 -93 -29t-39 -91v-50h259z" />
<glyph unicode="&#xe7;" horiz-adv-x="438" d="M101 -189l26 57q43 -30 84 -30q33 0 55 11.5t22 35.5q0 16 -12.5 24.5t-31.5 8.5q-15 0 -35 -5l-53 -21l-21 34l54 70l-23 6q-59 21 -87.5 65t-28.5 119v118q0 101 53 153.5t137 52.5q60 0 148 -40l-22 -50q-68 34 -126 34q-60 0 -98 -38.5t-38 -111.5v-118 q0 -106 79 -130q30 -10 71 -10q34 0 121 17l13 -52q-78 -21 -134 -21l-16 -17h6q40 0 69.5 -21.5t29.5 -66.5q0 -55 -39 -78t-94 -23q-35 0 -109 27z" />
<glyph unicode="&#xe8;" horiz-adv-x="470" d="M365 284v52q0 63 -37.5 90.5t-90.5 27.5q-54 0 -93 -29t-39 -91v-50h260zM378 93l27 -49q-95 -55 -179 -56h-9q-77 0 -122 39t-45 115v191q0 83 51.5 130t136.5 47q86 0 134 -46.5t48 -128.5v-106h-315v-88q0 -47 32 -73t82 -26q67 0 159 51zM301 565h-57l-81 142h77z " />
<glyph unicode="&#xe9;" horiz-adv-x="470" d="M365 284v52q0 63 -37.5 90.5t-90.5 27.5q-54 0 -93 -29t-39 -91v-50h260zM378 93l27 -49q-95 -55 -179 -56h-9q-77 0 -122 39t-45 115v191q0 83 51.5 130t136.5 47q86 0 134 -46.5t48 -128.5v-106h-315v-88q0 -47 32 -73t82 -26q67 0 159 51zM226 564h-57l62 142h76z" />
<glyph unicode="&#xea;" horiz-adv-x="470" d="M365 284v52q0 63 -37.5 90.5t-90.5 27.5q-54 0 -93 -29t-39 -91v-50h260zM378 93l27 -49q-95 -55 -179 -56h-9q-77 0 -122 39t-45 115v191q0 83 51.5 130t136.5 47q86 0 134 -46.5t48 -128.5v-106h-315v-88q0 -47 32 -73t82 -26q67 0 159 51zM395 600l-41 -41l-117 117 q-16 -15 -57.5 -56t-63.5 -61l-41 41l162 157z" />
<glyph unicode="&#xeb;" horiz-adv-x="470" d="M365 284v52q0 63 -37.5 90.5t-90.5 27.5q-54 0 -93 -29t-39 -91v-50h260zM378 93l27 -49q-95 -55 -179 -56h-9q-77 0 -122 39t-45 115v191q0 83 51.5 130t136.5 47q86 0 134 -46.5t48 -128.5v-106h-315v-88q0 -47 32 -73t82 -26q67 0 159 51zM310 563q-13 0 -23.5 10 t-10.5 23q0 12 10.5 22.5t23.5 10.5q12 0 22 -10.5t10 -22.5q0 -13 -10 -23t-22 -10zM162 563q-13 0 -22.5 10t-9.5 23q0 12 9.5 22.5t22.5 10.5t23 -10.5t10 -22.5q0 -13 -10 -23t-23 -10z" />
<glyph unicode="&#xec;" horiz-adv-x="238" d="M149 0h-55v501h55v-501zM188 564h-56l-82 142h77z" />
<glyph unicode="&#xed;" horiz-adv-x="238" d="M144 0h-56v501h56v-501zM107 565h-57l61 142h77z" />
<glyph unicode="&#xee;" horiz-adv-x="421" d="M238 0h-56v501h56v-501zM371 596l-43 -41l-116 117q-19 -18 -60.5 -58.5t-60.5 -58.5l-41 41l163 157z" />
<glyph unicode="&#xef;" horiz-adv-x="313" d="M184 0h-55v501h55v-501zM230 564q-12 0 -22.5 10t-10.5 23q0 12 10.5 22.5t22.5 10.5q13 0 23 -10.5t10 -22.5q0 -13 -10 -23t-23 -10zM83 564q-12 0 -22.5 10t-10.5 23q0 12 10.5 22.5t22.5 10.5q13 0 23 -10.5t10 -22.5q0 -13 -10 -23t-23 -10z" />
<glyph unicode="&#xf0;" horiz-adv-x="530" d="M430 692l38 -37l-46 -46q58 -69 58 -164v-240q0 -90 -62 -153.5t-152 -63.5t-153 63.5t-63 153.5t63 152t153 62q104 0 160 -68v94q0 72 -44 125l-57 -56l-38 37l55 54q-43 25 -106 25q-81 0 -139 -52l-37 42q80 65 176 65q81 0 145 -41q22 23 49 48zM426 205v8 q-2 63 -48.5 107t-111.5 44q-67 0 -114 -46.5t-47 -112.5q0 -67 47 -114t114 -47q66 0 113 47t47 114z" />
<glyph unicode="&#xf1;" d="M429 0h-55v339q0 60 -41 87.5t-103 27.5q-67 0 -125 -28v-426h-55v501h55v-13q60 22 125 22t109 -22q90 -42 90 -150v-338zM383 664l30 -52q-50 -47 -99 -47q-32 0 -78 23q-46 16 -60 16q-29 0 -76 -55l-33 51q61 62 111 62q28 0 86 -26q34 -16 52 -16q24 0 67 44z M260 639l4 -3q0 3 -4 3z" />
<glyph unicode="&#xf2;" horiz-adv-x="483" d="M433 311v-122q0 -84 -47.5 -141.5t-143.5 -57.5q-94 0 -143 58t-49 141v122q0 96 50 148.5t142 52.5q90 0 140.5 -53.5t50.5 -147.5zM377 189v122q0 68 -35 106.5t-100 38.5q-67 0 -102 -37t-35 -108v-122q0 -61 35 -102t102 -41q68 0 101.5 40.5t33.5 102.5zM308 565 h-57l-81 142h76z" />
<glyph unicode="&#xf3;" horiz-adv-x="483" d="M433 311v-122q0 -84 -47.5 -141.5t-143.5 -57.5q-94 0 -143 58t-49 141v122q0 96 50 148.5t142 52.5q90 0 140.5 -53.5t50.5 -147.5zM377 189v122q0 68 -35 106.5t-100 38.5q-67 0 -102 -37t-35 -108v-122q0 -61 35 -102t102 -41q68 0 101.5 40.5t33.5 102.5zM233 565 h-57l61 142h77z" />
<glyph unicode="&#xf4;" horiz-adv-x="483" d="M433 311v-122q0 -84 -47.5 -141.5t-143.5 -57.5q-94 0 -143 58t-49 141v122q0 96 50 148.5t142 52.5q90 0 140.5 -53.5t50.5 -147.5zM377 189v122q0 68 -35 106.5t-100 38.5q-67 0 -102 -37t-35 -108v-122q0 -61 35 -102t102 -41q68 0 101.5 40.5t33.5 102.5zM402 598 l-41 -41l-118 117q-104 -101 -121 -117l-40 41l162 157z" />
<glyph unicode="&#xf5;" horiz-adv-x="483" d="M433 311v-122q0 -84 -47.5 -141.5t-143.5 -57.5q-94 0 -143 58t-49 141v122q0 96 50 148.5t142 52.5q90 0 140.5 -53.5t50.5 -147.5zM377 189v122q0 68 -35 106.5t-100 38.5q-67 0 -102 -37t-35 -108v-122q0 -61 35 -102t102 -41q68 0 101.5 40.5t33.5 102.5zM385 660 l30 -51q-50 -47 -99 -47q-31 0 -79 22l-4 2q-36 15 -55 15q-29 0 -76 -55l-33 51q61 62 111 62q28 0 86 -26q34 -16 52 -16q24 0 67 43zM262 635l4 -2q0 2 -4 2z" />
<glyph unicode="&#xf6;" horiz-adv-x="483" d="M433 311v-122q0 -84 -47.5 -141.5t-143.5 -57.5q-94 0 -143 58t-49 141v122q0 96 50 148.5t142 52.5q90 0 140.5 -53.5t50.5 -147.5zM377 189v122q0 68 -35 106.5t-100 38.5q-67 0 -102 -37t-35 -108v-122q0 -61 35 -102t102 -41q68 0 101.5 40.5t33.5 102.5zM314 559 q-12 0 -22 10t-10 23q0 12 10 22.5t22 10.5q13 0 23 -10.5t10 -22.5q0 -13 -10 -23t-23 -10zM168 559q-13 0 -23 10t-10 23q0 12 10 22.5t23 10.5t23 -10.5t10 -22.5q0 -13 -10 -23t-23 -10z" />
<glyph unicode="&#xf7;" horiz-adv-x="433" d="M217 435q-13 0 -23 9.5t-10 22.5t10 23t23 10q12 0 22.5 -10t10.5 -23t-10.5 -22.5t-22.5 -9.5zM217 115q-13 0 -23 10.5t-10 22.5q0 13 10 23t23 10q12 0 22.5 -10t10.5 -23q0 -12 -10.5 -22.5t-22.5 -10.5zM50 336h333v-56h-333v56z" />
<glyph unicode="&#xf8;" horiz-adv-x="483" d="M180 -10h-56l8 29q-82 52 -82 170v122q0 96 50 148.5t142 52.5q34 0 58 -7q2 6 2 7h56l-8 -28q83 -53 83 -173v-122q0 -84 -47.5 -141.5t-143.5 -57.5q-38 0 -60 7q-2 -6 -2 -7zM377 189v122q0 85 -47 118q-82 -243 -130 -379q16 -4 42 -4q68 0 101.5 40.5t33.5 102.5z M242 456q-67 0 -102 -37t-35 -108v-122q0 -75 46 -115q22 63 65.5 189.5t65.5 188.5q-16 4 -40 4z" />
<glyph unicode="&#xf9;" d="M50 501h55v-339q0 -60 41 -87.5t103 -27.5q69 0 125 27v427h55v-501h-55v13q-60 -22 -125 -22q-64 0 -110 22q-89 42 -89 150v338zM306 564h-57l-81 142h77z" />
<glyph unicode="&#xfa;" d="M50 501h55v-339q0 -60 41 -87.5t103 -27.5q69 0 125 27v427h55v-501h-55v13q-60 -22 -125 -22q-64 0 -110 22q-89 42 -89 150v338zM231 564h-57l61 142h77z" />
<glyph unicode="&#xfb;" d="M50 501h55v-339q0 -60 41 -87.5t103 -27.5q69 0 125 27v427h55v-501h-55v13q-60 -22 -125 -22q-64 0 -110 22q-89 42 -89 150v338zM400 599l-41 -41l-118 117q-16 -15 -57.5 -56t-63.5 -61l-40 41l162 157z" />
<glyph unicode="&#xfc;" d="M50 501h55v-339q0 -60 41 -87.5t103 -27.5q69 0 125 27v427h55v-501h-55v13q-60 -22 -125 -22q-64 0 -110 22q-89 42 -89 150v338zM313 564q-13 0 -23 10t-10 23q0 12 10 22.5t23 10.5t22.5 -10.5t9.5 -22.5q0 -13 -9.5 -23t-22.5 -10zM166 564q-13 0 -22.5 10t-9.5 23 q0 12 9.5 22.5t22.5 10.5t23 -10.5t10 -22.5q0 -13 -10 -23t-23 -10z" />
<glyph unicode="&#xfd;" d="M374 501h55v-535q0 -77 -45 -115.5t-122 -38.5h-9q-86 2 -179 57l27 47q94 -51 159 -51q50 0 82 26t32 73v46q-60 -22 -132 -22q-66 0 -103 19q-89 45 -89 152v342h55v-339q0 -63 39 -91t100 -28q69 0 130 24v434zM231 564h-57l61 142h77z" />
<glyph unicode="&#xfe;" d="M50 -153v853h55v-212q68 22 130 22q85 0 139.5 -40.5t54.5 -133.5v-173q0 -108 -90 -150q-44 -22 -109 -22q-75 0 -125 22v-166h-55zM374 162v174q0 63 -39 90.5t-100 27.5q-69 0 -130 -24v-356q55 -27 125 -27q62 0 103 27.5t41 87.5z" />
<glyph unicode="&#xff;" d="M374 501h55v-535q0 -77 -45 -115.5t-122 -38.5h-9q-86 2 -179 57l27 47q94 -51 159 -51q50 0 82 26t32 73v46q-60 -22 -132 -22q-66 0 -103 19q-89 45 -89 152v342h55v-339q0 -63 39 -91t100 -28q69 0 130 24v434zM313 565q-13 0 -23 10t-10 23q0 12 10 22.5t23 10.5 t22.5 -10.5t9.5 -22.5q0 -13 -9.5 -23t-22.5 -10zM166 565q-13 0 -22.5 10t-9.5 23q0 12 9.5 22.5t22.5 10.5t23 -10.5t10 -22.5q0 -13 -10 -23t-23 -10z" />
<glyph unicode="&#x152;" horiz-adv-x="949" d="M897 0h-433v56q-66 -67 -178 -67q-44 0 -84.5 12t-75.5 37t-55.5 70t-20.5 104v270q0 117 63 176t174 59q113 0 177 -70v53h435v-56h-379v-267h346v-55h-346v-266h377v-56zM464 201v280q0 84 -46 132t-131 48t-133.5 -45.5t-48.5 -133.5v-270q0 -86 53.5 -126t127.5 -40 q69 0 123.5 39.5t54.5 115.5z" />
<glyph unicode="&#x153;" horiz-adv-x="798" d="M706 93l27 -49q-95 -55 -179 -56h-9q-110 0 -149 73q-51 -71 -153 -71q-95 0 -144 58t-49 141v122q0 96 50.5 148.5t142.5 52.5q110 0 160 -81q46 79 164 79q86 0 133.5 -46.5t47.5 -128.5v-106h-315v-88q0 -47 32 -73t82 -26q67 0 159 51zM378 183v128q0 68 -35.5 106.5 t-99.5 38.5q-67 0 -102 -37t-35 -108v-122q0 -61 34.5 -102t102.5 -41q66 0 100.5 40t34.5 97zM694 284v52q0 63 -38 90.5t-90 27.5q-55 0 -94 -29t-39 -91v-50h261z" />
<glyph unicode="&#x178;" horiz-adv-x="619" d="M337 0h-55v353l-232 347h67l192 -285l191 285h69l-232 -345v-355zM386 750q-13 0 -23.5 10.5t-10.5 22.5q0 13 10 23.5t24 10.5q12 0 22.5 -10.5t10.5 -23.5q0 -12 -10.5 -22.5t-22.5 -10.5zM235 750q-13 0 -23 10.5t-10 22.5q0 13 10 23.5t23 10.5t23.5 -10.5 t10.5 -23.5q0 -12 -10.5 -22.5t-23.5 -10.5z" />
<glyph unicode="&#x2c6;" horiz-adv-x="421" d="M371 583l-43 -42l-116 118l-121 -118l-41 42l163 156z" />
<glyph unicode="&#x2dc;" horiz-adv-x="444" d="M364 734l30 -52q-49 -46 -97 -46q-38 0 -80 22l-6 3q-44 13 -53 13q-32 0 -77 -54l-31 50q58 61 110 61q32 0 80 -23l6 -3q32 -15 53 -15q22 0 65 44z" />
<glyph unicode="&#x2000;" horiz-adv-x="495" />
<glyph unicode="&#x2001;" horiz-adv-x="990" />
<glyph unicode="&#x2002;" horiz-adv-x="495" />
<glyph unicode="&#x2003;" horiz-adv-x="990" />
<glyph unicode="&#x2004;" horiz-adv-x="330" />
<glyph unicode="&#x2005;" horiz-adv-x="247" />
<glyph unicode="&#x2006;" horiz-adv-x="165" />
<glyph unicode="&#x2007;" horiz-adv-x="165" />
<glyph unicode="&#x2008;" horiz-adv-x="123" />
<glyph unicode="&#x2009;" horiz-adv-x="198" />
<glyph unicode="&#x200a;" horiz-adv-x="55" />
<glyph unicode="&#x2010;" horiz-adv-x="433" d="M50 340h333v-55h-333v55z" />
<glyph unicode="&#x2011;" horiz-adv-x="433" d="M50 340h333v-55h-333v55z" />
<glyph unicode="&#x2012;" horiz-adv-x="433" d="M50 340h333v-55h-333v55z" />
<glyph unicode="&#x2013;" horiz-adv-x="482" d="M50 297h382v-55h-382v55z" />
<glyph unicode="&#x2014;" horiz-adv-x="636" d="M50 297h536v-55h-536v55z" />
<glyph unicode="&#x2018;" horiz-adv-x="181" d="M58 662l40 38l33 -12l-16 -40q1 -2 1 -8q0 -13 -10.5 -23t-23.5 -10q-12 0 -22 10t-10 23q0 12 8 22z" />
<glyph unicode="&#x2019;" horiz-adv-x="181" d="M123 645l-40 -38l-33 12l16 40q-1 2 -1 8q0 13 10.5 23t23.5 10q12 0 22 -10t10 -23q0 -12 -8 -22z" />
<glyph unicode="&#x201a;" horiz-adv-x="181" d="M123 12l-40 -41l-33 16l16 37q-1 4 -1 9q0 13 10.5 22.5t22.5 9.5q13 0 23 -9.5t10 -22.5q0 -15 -8 -21z" />
<glyph unicode="&#x201c;" horiz-adv-x="276" d="M58 662l40 38l33 -12l-16 -40q1 -2 1 -8q0 -13 -10.5 -23t-23.5 -10q-12 0 -22 10t-10 23q0 12 8 22zM153 662l40 38l33 -12l-16 -40q1 -2 1 -8q0 -13 -10.5 -23t-23.5 -10q-12 0 -22 10t-10 23q0 12 8 22z" />
<glyph unicode="&#x201d;" horiz-adv-x="276" d="M218 645l-40 -38l-33 12l16 40q-1 2 -1 8q0 13 10.5 23t23.5 10q12 0 22 -10t10 -23q0 -12 -8 -22zM123 645l-40 -38l-33 12l16 40q-1 2 -1 8q0 13 10.5 23t23.5 10q12 0 22 -10t10 -23q0 -12 -8 -22z" />
<glyph unicode="&#x201e;" horiz-adv-x="276" d="M218 10l-40 -38l-33 12l16 40q-1 2 -1 8q0 13 10.5 23t23.5 10q12 0 22 -10t10 -23q0 -12 -8 -22zM123 10l-40 -38l-33 12l16 40q-1 2 -1 8q0 13 10.5 23t23.5 10q12 0 22 -10t10 -23q0 -12 -8 -22z" />
<glyph unicode="&#x2022;" horiz-adv-x="305" d="M50 310q0 41 30 72t72 31t72.5 -31t30.5 -72q0 -43 -30.5 -73t-72.5 -30q-43 0 -72.5 30t-29.5 73z" />
<glyph unicode="&#x2026;" horiz-adv-x="473" d="M83 0q-13 0 -23 10t-10 23t10 22.5t23 9.5q12 0 22 -9.5t10 -22.5t-10 -23t-22 -10zM237 0q-13 0 -23 10t-10 23t10 22.5t23 9.5q12 0 22 -9.5t10 -22.5t-10 -23t-22 -10zM390 0q-12 0 -22 10t-10 23t10 22.5t22 9.5q13 0 23 -9.5t10 -22.5t-10 -23t-23 -10z" />
<glyph unicode="&#x202f;" horiz-adv-x="198" />
<glyph unicode="&#x2039;" horiz-adv-x="339" d="M252 64l-202 202l200 200l39 -39l-160 -161l158 -156z" />
<glyph unicode="&#x203a;" horiz-adv-x="339" d="M289 266l-202 -202l-35 46l158 156l-160 161l39 39z" />
<glyph unicode="&#x205f;" horiz-adv-x="247" />
<glyph unicode="&#x20ac;" horiz-adv-x="560" d="M96 267h-46v55h46v42h-46v55h46v81q0 53 18.5 93.5t50.5 63t68 33t76 10.5q61 0 116 -29.5t85 -91.5l-50 -24q-44 89 -151 89q-64 0 -111 -35t-47 -109v-81h232v-55h-232v-42h232v-55h-232v-77q0 -74 47 -109.5t111 -35.5q107 0 151 90l50 -24q-30 -62 -85 -92t-116 -30 q-40 0 -76 10.5t-68 32.5t-50.5 62.5t-18.5 95.5v77z" />
<glyph unicode="&#x2122;" horiz-adv-x="729" d="M208 293h-56v354h-102v53h264v-53h-106v-354zM679 293h-53v235l-88 -235h-40l-88 235v-235h-55v407h48l116 -308q96 256 115 308h45v-407z" />
<glyph unicode="&#x25fc;" horiz-adv-x="500" d="M0 500h500v-500h-500v500z" />
<glyph unicode="&#xfb01;" horiz-adv-x="423" d="M50 0v531q0 86 44.5 126.5t108.5 40.5q23 0 52 -5v-56q-36 6 -52 6q-41 0 -69 -26.5t-28 -85.5v-26h140v-56h-140v-449h-56zM342 632q-32 0 -32 32q0 30 32 30q31 0 31 -30q0 -32 -31 -32zM369 0h-56v501h56v-501z" />
<glyph unicode="&#xfb02;" horiz-adv-x="415" d="M50 0v535q0 86 44.5 126.5t108.5 40.5q23 0 52 -5v-56q-36 6 -52 6q-41 0 -69 -26.5t-28 -85.5v-26h140v-56h-140v-453h-56zM365 0h-55v699h55v-699z" />
</font>
</defs>
</svg>
